<svg xmlns="http://www.w3.org/2000/svg" viewBox="0 0 800 600">
  <!-- Styles -->
  <defs>
    <style>
      .entity {
        fill: #e6f3ff;
        stroke: #4682B4;
        stroke-width: 2;
        rx: 5;
        ry: 5;
      }
      .title {
        font-family: Arial, sans-serif;
        font-weight: bold;
        font-size: 16px;
        text-anchor: middle;
      }
      .attribute {
        font-family: Arial, sans-serif;
        font-size: 12px;
        text-anchor: start;
      }
      .pk {
        font-weight: bold;
        text-decoration: underline;
      }
      .fk {
        font-style: italic;
        fill: #6495ED;
      }
      .relation {
        stroke: #4682B4;
        stroke-width: 2;
        fill: none;
      }
      .cardinality {
        font-family: Arial, sans-serif;
        font-size: 14px;
        fill: #4682B4;
      }
    </style>
  </defs>
  
  <!-- Background -->
  <rect width="800" height="600" fill="#f9f9f9"/>
  
  <!-- Title -->
  <text x="400" y="30" font-family="Arial, sans-serif" font-size="24" font-weight="bold" text-anchor="middle" fill="#2c3e50">AI Dermat Schema</text>
  
  <!-- Users Entity -->
  <rect x="100" y="100" width="200" height="180" class="entity"/>
  <text x="200" y="125" class="title">USERS</text>
  <line x1="110" y1="135" x2="290" y2="135" stroke="#4682B4" stroke-width="1"/>
  <text x="120" y="155" class="attribute pk">user_id (PK)</text>
  <text x="120" y="175" class="attribute">username (UQ)</text>
  <text x="120" y="195" class="attribute">email (UQ)</text>
  <text x="120" y="215" class="attribute">first_name</text>
  <text x="120" y="235" class="attribute">last_name</text>
  <text x="120" y="255" class="attribute">password</text>
  <text x="120" y="275" class="attribute">contact</text>
  
  <!-- Doctors Entity -->
  <rect x="500" y="100" width="200" height="140" class="entity"/>
  <text x="600" y="125" class="title">DOCTORS</text>
  <line x1="510" y1="135" x2="690" y2="135" stroke="#4682B4" stroke-width="1"/>
  <text x="520" y="155" class="attribute pk">doctor_id (PK)</text>
  <text x="520" y="175" class="attribute">email (UQ)</text>
  <text x="520" y="195" class="attribute">first_name</text>
  <text x="520" y="215" class="attribute">last_name</text>
  
  <!-- Appointments Entity - moved further right -->
  <rect x="300" y="350" width="200" height="220" class="entity"/>
  <text x="400" y="375" class="title">APPOINTMENTS</text>
  <line x1="310" y1="385" x2="490" y2="385" stroke="#4682B4" stroke-width="1"/>
  <text x="320" y="405" class="attribute pk">appointment_id (PK)</text>
  <text x="320" y="425" class="attribute fk">user_id (FK)</text>
  <text x="320" y="445" class="attribute fk">doctor_id (FK)</text>
  <text x="320" y="465" class="attribute">consultation_type</text>
  <text x="320" y="485" class="attribute">date</text>
  <text x="320" y="505" class="attribute">month</text>
  <text x="320" y="525" class="attribute">year</text>
  <text x="320" y="545" class="attribute">time_slot</text>
  <text x="320" y="565" class="attribute">symptoms</text>
  
  <!-- Medical History Entity - moved further left -->
  <rect x="50" y="350" width="200" height="140" class="entity"/>
  <text x="150" y="375" class="title">MEDICAL_HISTORY</text>
  <line x1="60" y1="385" x2="240" y2="385" stroke="#4682B4" stroke-width="1"/>
  <text x="70" y="405" class="attribute pk fk">user_id (PK, FK)</text>
  <text x="70" y="425" class="attribute">current_medication</text>
  <text x="70" y="445" class="attribute">known_allergies</text>
  <text x="70" y="465" class="attribute">past_information</text>
  
  <!-- Relationships -->
  <!-- Users to Appointments -->
  <path d="M 200 280 L 200 330 L 350 330 L 350 350" class="relation"/>
  <text x="210" y="300" class="cardinality">1</text>
  <text x="330" y="345" class="cardinality">N</text>
  
  <!-- Doctors to Appointments -->
  <path d="M 600 240 L 600 330 L 400 330 L 400 350" class="relation"/>
  <text x="590" y="260" class="cardinality">1</text>
  <text x="410" y="345" class="cardinality">N</text>
  
  <!-- Users to Medical History -->
  <path d="M 150 280 L 150 350" class="relation"/>
  <text x="140" y="300" class="cardinality">1</text>
  <text x="140" y="345" class="cardinality">1</text>
  
  <!-- Legend -->
  <rect x="580" y="490" width="170" height="90" fill="white" stroke="#4682B4" stroke-width="1" rx="5" ry="5"/>
  <text x="665" y="510" font-family="Arial, sans-serif" font-size="14" font-weight="bold" text-anchor="middle">Legend</text>
  <text x="600" y="530" class="attribute pk">PK - Primary Key</text>
  <text x="600" y="550" class="attribute fk">FK - Foreign Key</text>
  <text x="600" y="570" class="attribute">UQ - Unique</text>
</svg>